<svg id="visual" viewBox="0 0 540 960" width="540" height="960" xmlns="http://www.w3.org/2000/svg" xmlns:xlink="http://www.w3.org/1999/xlink" version="1.1"><path d="M496 960L496 928C496 896 496 832 493.3 768C490.7 704 485.3 640 483.5 576C481.7 512 483.3 448 482.3 384C481.3 320 477.7 256 477.7 192C477.7 128 481.3 64 483.2 32L485 0L540 0L540 32C540 64 540 128 540 192C540 256 540 320 540 384C540 448 540 512 540 576C540 640 540 704 540 768C540 832 540 896 540 928L540 960Z" fill="#042818"></path><path d="M339 960L361.5 928C384 896 429 832 437.2 768C445.3 704 416.7 640 392.3 576C368 512 348 448 348 384C348 320 368 256 379.8 192C391.7 128 395.3 64 397.2 32L399 0L486 0L484.2 32C482.3 64 478.7 128 478.7 192C478.7 256 482.3 320 483.3 384C484.3 448 482.7 512 484.5 576C486.3 640 491.7 704 494.3 768C497 832 497 896 497 928L497 960Z" fill="#02301b"></path><path d="M339 960L361.5 928C384 896 429 832 431.7 768C434.3 704 394.7 640 365.8 576C337 512 319 448 322.7 384C326.3 320 351.7 256 365.2 192C378.7 128 380.3 64 381.2 32L382 0L400 0L398.2 32C396.3 64 392.7 128 380.8 192C369 256 349 320 349 384C349 448 369 512 393.3 576C417.7 640 446.3 704 438.2 768C430 832 385 896 362.5 928L340 960Z" fill="#004425"></path><path d="M334 960L352 928C370 896 406 832 395.2 768C384.3 704 326.7 640 298.7 576C270.7 512 272.3 448 285.8 384C299.3 320 324.7 256 334.7 192C344.7 128 339.3 64 336.7 32L334 0L383 0L382.2 32C381.3 64 379.7 128 366.2 192C352.7 256 327.3 320 323.7 384C320 448 338 512 366.8 576C395.7 640 435.3 704 432.7 768C430 832 385 896 362.5 928L340 960Z" fill="#006a3c"></path><path d="M296 960L310.3 928C324.7 896 353.3 832 341.7 768C330 704 278 640 252 576C226 512 226 448 243 384C260 320 294 256 300.3 192C306.7 128 285.3 64 274.7 32L264 0L335 0L337.7 32C340.3 64 345.7 128 335.7 192C325.7 256 300.3 320 286.8 384C273.3 448 271.7 512 299.7 576C327.7 640 385.3 704 396.2 768C407 832 371 896 353 928L335 960Z" fill="#007241"></path><path d="M280 960L289.8 928C299.7 896 319.3 832 304.8 768C290.3 704 241.7 640 222.8 576C204 512 215 448 229.5 384C244 320 262 256 266.5 192C271 128 262 64 257.5 32L253 0L265 0L275.7 32C286.3 64 307.7 128 301.3 192C295 256 261 320 244 384C227 448 227 512 253 576C279 640 331 704 342.7 768C354.3 832 325.7 896 311.3 928L297 960Z" fill="#006a3c"></path><path d="M231 960L224.7 928C218.3 896 205.7 832 197.7 768C189.7 704 186.3 640 164.8 576C143.3 512 103.7 448 99.2 384C94.7 320 125.3 256 146 192C166.7 128 177.3 64 182.7 32L188 0L254 0L258.5 32C263 64 272 128 267.5 192C263 256 245 320 230.5 384C216 448 205 512 223.8 576C242.7 640 291.3 704 305.8 768C320.3 832 300.7 896 290.8 928L281 960Z" fill="#004425"></path><path d="M220 960L203.8 928C187.7 896 155.3 832 140.2 768C125 704 127 640 115.3 576C103.7 512 78.3 448 72 384C65.7 320 78.3 256 91 192C103.7 128 116.3 64 122.7 32L129 0L189 0L183.7 32C178.3 64 167.7 128 147 192C126.3 256 95.7 320 100.2 384C104.7 448 144.3 512 165.8 576C187.3 640 190.7 704 198.7 768C206.7 832 219.3 896 225.7 928L232 960Z" fill="#02301b"></path><path d="M0 960L0 928C0 896 0 832 0 768C0 704 0 640 0 576C0 512 0 448 0 384C0 320 0 256 0 192C0 128 0 64 0 32L0 0L130 0L123.7 32C117.3 64 104.7 128 92 192C79.3 256 66.7 320 73 384C79.3 448 104.7 512 116.3 576C128 640 126 704 141.2 768C156.3 832 188.7 896 204.8 928L221 960Z" fill="#042818"></path></svg>